<svg width="25" height="25" viewBox="0 0 25 25" fill="none" xmlns="http://www.w3.org/2000/svg">
<circle cx="12.372" cy="12.4848" r="11.686" fill="#065143"/>
<path d="M8.72021 6.64239V5.18164H16.024V6.64239H18.2202C18.6204 6.64239 18.9455 6.96741 18.9455 7.36765V19.0639C18.9453 19.2562 18.8688 19.4405 18.7328 19.5765C18.5969 19.7125 18.4125 19.789 18.2202 19.7891H6.52397C6.33168 19.789 6.14732 19.7125 6.01134 19.5765C5.87537 19.4405 5.7989 19.2562 5.79871 19.0639V7.36765C5.79871 6.96741 6.12372 6.64239 6.52397 6.64239H8.72021ZM8.72021 8.10314H7.25946V18.3284H17.4847V8.10314H16.024V9.56389H8.72021V8.10314ZM10.181 6.64239V8.10314H14.5632V6.64239H10.181Z" fill="white"/>
</svg>
