<svg width="17" height="17" viewBox="0 0 17 17" fill="none" xmlns="http://www.w3.org/2000/svg">
<path d="M3.10829 11.7475C2.40972 11.0055 2.03467 10.1733 2.03467 8.82434C2.03467 6.45056 3.70106 4.32298 6.12434 3.27106L6.73 4.20565C4.46813 5.42916 4.02593 7.01688 3.84959 8.01793C4.21379 7.82939 4.69058 7.7636 5.15788 7.807C6.38139 7.92027 7.34582 8.92471 7.34582 10.1733C7.34582 10.8029 7.09573 11.4067 6.65056 11.8518C6.20539 12.297 5.60161 12.5471 4.97205 12.5471C4.24431 12.5471 3.54846 12.2148 3.10829 11.7475ZM9.89051 11.7475C9.19194 11.0055 8.81689 10.1733 8.81689 8.82434C8.81689 6.45056 10.4833 4.32298 12.9066 3.27106L13.5122 4.20565C11.2503 5.42916 10.8081 7.01688 10.6318 8.01793C10.996 7.82939 11.4728 7.7636 11.9401 7.807C13.1636 7.92027 14.128 8.92471 14.128 10.1733C14.128 10.8029 13.8779 11.4067 13.4328 11.8518C12.9876 12.297 12.3838 12.5471 11.7543 12.5471C11.0265 12.5471 10.3307 12.2148 9.89051 11.7475Z" fill="#828282"/>
</svg>
