<svg width="" height="" viewBox="0 0 40 40" fill="" xmlns="http://www.w3.org/2000/svg">
<path d="M24.1673 3.33334C25.1517 3.333 26.1202 3.5818 26.9826 4.05656C27.8449 4.53131 28.5731 5.21659 29.0993 6.04856C29.6255 6.88054 29.9326 7.83214 29.992 8.81476C30.0514 9.79738 29.8612 10.779 29.439 11.6683L35.0007 11.6667C35.4427 11.6667 35.8666 11.8423 36.1792 12.1548C36.4917 12.4674 36.6673 12.8913 36.6673 13.3333V20C36.6673 20.442 36.4917 20.866 36.1792 21.1785C35.8666 21.4911 35.4427 21.6667 35.0007 21.6667H33.334V35C33.334 35.442 33.1584 35.866 32.8458 36.1785C32.5333 36.4911 32.1093 36.6667 31.6673 36.6667H8.33398C7.89196 36.6667 7.46803 36.4911 7.15547 36.1785C6.84291 35.866 6.66732 35.442 6.66732 35V21.6667H5.00065C4.55862 21.6667 4.1347 21.4911 3.82214 21.1785C3.50958 20.866 3.33398 20.442 3.33398 20V13.3333C3.33398 12.8913 3.50958 12.4674 3.82214 12.1548C4.1347 11.8423 4.55862 11.6667 5.00065 11.6667L10.5623 11.6683C9.96858 10.4211 9.8367 9.00368 10.1902 7.66834C10.5436 6.333 11.3595 5.16641 12.4925 4.37626C13.6255 3.58611 15.0022 3.22367 16.3774 3.35345C17.7526 3.48324 19.0371 4.09684 20.0023 5.08501C20.544 4.52922 21.1918 4.0878 21.9072 3.78692C22.6227 3.48603 23.3912 3.33179 24.1673 3.33334ZM30.0007 21.6667H10.0007V33.3333H30.0007V21.6667ZM33.334 15H6.66732V18.3333H33.334V15ZM15.834 6.66667C15.192 6.66699 14.5747 6.9143 14.11 7.35736C13.6454 7.80041 13.369 8.40524 13.3381 9.04653C13.3073 9.68782 13.5243 10.3164 13.9443 10.802C14.3643 11.2876 14.955 11.5931 15.594 11.655L15.834 11.6667H18.334V9.16667C18.334 8.5452 18.1025 7.94602 17.6846 7.48597C17.2668 7.02593 16.6926 6.738 16.074 6.67834L15.834 6.66667ZM24.1673 6.66667L23.9273 6.67834C23.3496 6.73369 22.8092 6.9883 22.3986 7.39852C21.9881 7.80874 21.7331 8.34901 21.6773 8.92667L21.6673 9.16667V11.6667H24.1673L24.4073 11.655C25.0257 11.5951 25.5996 11.307 26.0172 10.847C26.4347 10.387 26.6661 9.78795 26.6661 9.16667C26.6661 8.5454 26.4347 7.94638 26.0172 7.48636C25.5996 7.02634 25.0257 6.73829 24.4073 6.67834L24.1673 6.66667Z" fill=""/>
</svg>
