<svg width="24" height="24" viewBox="0 0 24 24" fill="none" xmlns="http://www.w3.org/2000/svg">
<circle cx="12" cy="12" r="12" fill="#f5f5f7"/>
<path fill-rule="evenodd" clip-rule="evenodd" d="M8.26758 5.14998C6.54584 5.14998 5.1501 6.54572 5.1501 8.26745V15.8024C5.1501 17.5241 6.54584 18.9199 8.26758 18.9199H15.8025C17.5243 18.9199 18.92 17.5241 18.92 15.8024V8.26745C18.92 6.54572 17.5243 5.14998 15.8025 5.14998H8.26758ZM3.8501 8.26745C3.8501 5.82775 5.82787 3.84998 8.26758 3.84998H15.8025C18.2422 3.84998 20.22 5.82775 20.22 8.26745V15.8024C20.22 18.2421 18.2422 20.2199 15.8025 20.2199H8.26758C5.82787 20.2199 3.8501 18.2421 3.8501 15.8024V8.26745ZM12.4145 9.66378C11.9227 9.59084 11.4203 9.67486 10.979 9.90387C10.5376 10.1329 10.1797 10.4952 9.95618 10.9394C9.73263 11.3835 9.65481 11.8868 9.73381 12.3778C9.8128 12.8687 10.0446 13.3222 10.3962 13.6738C10.7478 14.0254 11.2013 14.2572 11.6922 14.3362C12.1831 14.4151 12.6864 14.3373 13.1306 14.1138C13.5747 13.8902 13.9371 13.5323 14.1661 13.091C14.3951 12.6496 14.4791 12.1473 14.4062 11.6554C14.3318 11.1537 14.098 10.6892 13.7394 10.3306C13.3807 9.97196 12.9162 9.73818 12.4145 9.66378ZM10.3802 8.74996C11.0643 8.39501 11.8429 8.2648 12.6052 8.37784C13.3828 8.49315 14.1027 8.8555 14.6586 9.41137C15.2145 9.96723 15.5768 10.6871 15.6921 11.4647C15.8052 12.2271 15.675 13.0056 15.32 13.6897C14.9651 14.3738 14.4034 14.9285 13.7151 15.275C13.0267 15.6215 12.2466 15.7421 11.4857 15.6196C10.7248 15.4972 10.0219 15.138 9.47694 14.593C8.932 14.0481 8.57276 13.3452 8.45032 12.5843C8.32788 11.8234 8.44849 11.0433 8.79497 10.3549C9.14146 9.66651 9.69618 9.1049 10.3802 8.74996ZM16.1793 7.24072C15.8203 7.24072 15.5293 7.53173 15.5293 7.89072C15.5293 8.2497 15.8203 8.54072 16.1793 8.54072H16.1879C16.5469 8.54072 16.8379 8.2497 16.8379 7.89072C16.8379 7.53173 16.5469 7.24072 16.1879 7.24072H16.1793Z" fill="#9C3D21"/>
</svg>
