<svg width="20" height="20" viewBox="0 0 20 20" fill="none" xmlns="http://www.w3.org/2000/svg">
<path d="M9.87612 4.88898C9.70693 4.88898 9.53958 4.89761 9.3747 4.9145C9.20982 4.93139 9.04722 4.95642 8.88739 4.98926C8.72756 5.02211 8.57057 5.0628 8.41673 5.11082L7.96516 5.27662L7.53523 5.48421L7.12953 5.73107L6.75046 6.01461L6.40067 6.33236L6.08262 6.68185L5.79877 7.06049L5.5516 7.46581L5.34389 7.89524C5.28145 8.04212 5.22591 8.19272 5.17783 8.34644C5.12976 8.50016 5.08908 8.65709 5.05615 8.81674C5.02324 8.97638 4.99822 9.13879 4.98126 9.30356C4.96432 9.46831 4.95581 9.63548 4.95581 9.80448C4.95581 9.97349 4.96444 10.1407 4.98126 10.3054C4.99801 10.4689 5.02299 10.6314 5.05615 10.7923C5.08908 10.9525 5.12976 11.1089 5.17783 11.2626C5.22591 11.4163 5.28138 11.5668 5.34389 11.7138L5.5516 12.1432L5.79877 12.5485L6.08262 12.9272L6.40067 13.2767L6.75046 13.5945L7.12953 13.878L7.53523 14.1248L7.96516 14.3324L8.41673 14.4982L8.88739 14.6198C9.04846 14.6529 9.21111 14.6779 9.3747 14.6946C9.5413 14.7116 9.70866 14.7201 9.87612 14.72C10.0453 14.72 10.2127 14.7115 10.3775 14.6946C10.5411 14.6779 10.7037 14.6529 10.8648 14.6198L11.3355 14.4982L11.7871 14.3324L12.217 14.1248L12.6227 13.878L13.0018 13.5945L13.3516 13.2767L13.6697 12.9272L13.9535 12.5485L14.2007 12.1432L14.4085 11.7138L14.5744 11.2626C14.6225 11.1089 14.6633 10.9519 14.6962 10.7923L14.771 10.3054C14.7879 10.1406 14.7965 9.97344 14.7965 9.80442C14.7965 9.63541 14.7879 9.46825 14.771 9.30349C14.7543 9.14006 14.7293 8.97758 14.6962 8.81667C14.6633 8.65642 14.6225 8.50016 14.5744 8.34637L14.4085 7.89519L14.2007 7.46575L13.9535 7.06042L13.6697 6.68178L13.3516 6.33229L13.0018 6.01455L12.6227 5.73102L12.217 5.48416L11.7871 5.27657L11.3355 5.11075L10.8648 4.98921L10.3775 4.91444C10.2109 4.89743 10.0436 4.8889 9.87612 4.88892V4.88898ZM9.87612 6.58563C9.98799 6.58563 10.0984 6.59118 10.2071 6.60215L10.5276 6.65066L10.8372 6.72954L11.1337 6.83724L11.4156 6.97222L11.6806 7.13279L11.9284 7.31752L12.1569 7.52474L12.3643 7.75292L12.5492 8.00046L12.7099 8.26587L12.8449 8.54757C12.8855 8.64397 12.9215 8.74277 12.9528 8.8438C12.9841 8.94482 13.0104 9.04806 13.0317 9.15322C13.0529 9.25837 13.0687 9.36538 13.0802 9.47405L13.0967 9.80479C13.0967 9.91654 13.0912 10.0269 13.0802 10.1356C13.0692 10.2443 13.0531 10.3513 13.0317 10.4564C13.0103 10.5615 12.9839 10.6648 12.9528 10.7658L12.8449 11.0621L12.7099 11.3438L12.5492 11.6091L12.3643 11.8567L12.1569 12.0849L11.9284 12.2921L11.6806 12.4769L11.4156 12.6374L11.1337 12.7724L10.8372 12.8801L10.5276 12.959L10.2071 13.0074C10.0971 13.0185 9.98662 13.024 9.87607 13.024C9.76548 13.024 9.65497 13.0185 9.54495 13.0074L9.22443 12.959C9.11921 12.9377 9.0159 12.9113 8.91475 12.8801L8.61828 12.7724L8.33641 12.6374L8.07137 12.4769L7.82358 12.2921L7.59515 12.0849L7.38774 11.8567L7.20282 11.6091L7.04207 11.3438L6.90708 11.0621L6.79922 10.7658L6.72032 10.4564L6.67182 10.1356C6.66078 10.0257 6.65526 9.91527 6.65529 9.80479C6.65526 9.69433 6.66078 9.58394 6.67182 9.47405C6.68272 9.36538 6.69893 9.2583 6.72032 9.15322C6.7415 9.04885 6.76785 8.9456 6.79929 8.84385L6.90715 8.54762L7.04214 8.26594L7.20289 8.00053L7.38779 7.75299L7.59521 7.5248L7.82364 7.31757L8.07142 7.13285L8.33647 6.97228L8.61834 6.83729C8.71535 6.79655 8.81433 6.76061 8.91487 6.72961L9.22455 6.65071C9.32977 6.62939 9.4369 6.61312 9.54507 6.60221C9.6551 6.59119 9.76561 6.58567 9.87619 6.58568L9.87612 6.58563Z" fill="url(#paint0_radial_1035_6007)"/>
<path d="M14.996 3.49072C14.957 3.49072 14.918 3.4927 14.8791 3.49664C14.8402 3.50057 14.8016 3.50645 14.7632 3.51426C14.725 3.52208 14.6871 3.53181 14.6498 3.54342C14.6124 3.55504 14.5758 3.56854 14.5397 3.58385C14.5038 3.59919 14.4686 3.61633 14.4343 3.6352C14.3999 3.65404 14.3667 3.67459 14.3345 3.69678C14.3021 3.71899 14.271 3.74281 14.2412 3.76816C14.2113 3.79347 14.1827 3.82028 14.1554 3.84847C14.1283 3.87667 14.1025 3.90624 14.0782 3.93704C14.0539 3.96785 14.0312 3.99985 14.0101 4.03295C13.989 4.06602 13.9696 4.10013 13.9518 4.13515C13.9342 4.17019 13.9181 4.20611 13.904 4.24277C13.8898 4.27941 13.8775 4.31675 13.867 4.35463C13.8565 4.39252 13.848 4.43091 13.8414 4.46966C13.8348 4.50839 13.8301 4.54743 13.8273 4.58665C13.8253 4.61441 13.8243 4.64226 13.8243 4.6701C13.8243 4.70944 13.8262 4.74875 13.8302 4.7879C13.8341 4.82702 13.84 4.86591 13.8477 4.90445C13.8555 4.94298 13.8651 4.9811 13.8766 5.01866C13.8882 5.05623 13.9016 5.0932 13.9168 5.12942C13.932 5.16566 13.949 5.20111 13.9678 5.23563C13.9865 5.27014 14.007 5.30369 14.029 5.33616C14.0511 5.3686 14.0747 5.39991 14.0998 5.42997C14.1251 5.46006 14.1517 5.48887 14.1797 5.51627C14.2078 5.54366 14.2371 5.56962 14.2678 5.59406C14.2984 5.61851 14.3302 5.6414 14.3631 5.66266C14.3959 5.68391 14.4299 5.7035 14.4646 5.72134C14.4995 5.73919 14.5352 5.75528 14.5715 5.76953C14.608 5.78379 14.645 5.79619 14.6827 5.8067C14.7203 5.81721 14.7584 5.82581 14.7969 5.83246C14.8354 5.83916 14.8743 5.84391 14.9131 5.84671C14.9408 5.84868 14.9685 5.84966 14.9961 5.84967C15.0351 5.84967 15.0743 5.84772 15.1132 5.84381C15.1519 5.83988 15.1907 5.834 15.2289 5.82618C15.2672 5.81838 15.305 5.80864 15.3424 5.79703C15.3797 5.78541 15.4165 5.77191 15.4524 5.7566C15.4883 5.74127 15.5236 5.72416 15.5578 5.70531C15.5922 5.68645 15.6254 5.66588 15.6578 5.64367C15.69 5.62148 15.7211 5.59768 15.751 5.57236C15.7808 5.54701 15.8094 5.5202 15.8367 5.49198C15.8639 5.46377 15.8897 5.43421 15.9139 5.40341C15.9382 5.3726 15.9609 5.3406 15.982 5.3075C16.0032 5.27442 16.0227 5.24028 16.0403 5.20525C16.0581 5.17019 16.0741 5.13427 16.0883 5.09762C16.1024 5.06097 16.1147 5.02364 16.1251 4.98575C16.1356 4.94787 16.1441 4.90948 16.1508 4.87074C16.1575 4.832 16.1622 4.79295 16.1648 4.75375C16.1668 4.72597 16.1679 4.69814 16.1679 4.67029C16.1679 4.63097 16.1659 4.59167 16.162 4.55255C16.1581 4.51343 16.1523 4.47454 16.1445 4.436C16.1368 4.39747 16.127 4.35935 16.1155 4.32179C16.1039 4.28422 16.0905 4.24725 16.0753 4.21103C16.0601 4.17479 16.0431 4.13934 16.0244 4.10482C16.0057 4.07031 15.9853 4.03676 15.9632 4.00429C15.941 3.97182 15.9174 3.9405 15.8923 3.91041C15.867 3.88034 15.8404 3.85153 15.8125 3.82413C15.7844 3.79673 15.755 3.77077 15.7244 3.74634C15.6938 3.7219 15.662 3.69902 15.6292 3.67779C15.5963 3.65654 15.5624 3.63695 15.5275 3.61911C15.4926 3.60126 15.4569 3.58517 15.4206 3.57092C15.3843 3.55666 15.3471 3.54426 15.3094 3.53375C15.2719 3.52322 15.2337 3.5146 15.1952 3.50792C15.1567 3.50125 15.118 3.49651 15.079 3.49374C15.0513 3.49176 15.0236 3.49079 14.996 3.49079V3.49072Z" fill="url(#paint1_radial_1035_6007)"/>
<path d="M8.94301 0.188168C8.40787 0.187305 7.9303 0.189523 7.5013 0.195564L6.35114 0.226383C6.0104 0.241176 5.70936 0.260467 5.43914 0.285431C5.30403 0.297881 5.17657 0.311811 5.05575 0.327159C4.94078 0.34165 4.82614 0.358522 4.71188 0.377765C4.60308 0.396257 4.49983 0.416227 4.40084 0.437923C4.30186 0.45962 4.2073 0.483042 4.11607 0.508191C4.0269 0.532782 3.93841 0.559832 3.85073 0.589307C3.76481 0.618276 3.68098 0.648972 3.59819 0.681764C3.43263 0.747347 3.27115 0.820941 3.10484 0.903413C2.97688 0.9669 2.85866 1.03119 2.74636 1.09924C2.63406 1.16729 2.52766 1.23916 2.4235 1.31744C2.31622 1.39844 2.21282 1.48446 2.11365 1.57521C2.00997 1.66964 1.90408 1.77349 1.79405 1.88956C1.6558 2.0346 1.53567 2.16983 1.42903 2.30253C1.37572 2.36885 1.32579 2.43444 1.27876 2.5004C1.23225 2.56538 1.18779 2.63183 1.14544 2.6996C1.10352 2.76679 1.06383 2.83521 1.02586 2.9056C0.987299 2.9772 0.950855 3.04993 0.916575 3.12367C0.846432 3.27432 0.780972 3.43655 0.715636 3.61765C0.667165 3.75151 0.623762 3.88718 0.585518 4.02432C0.546502 4.1645 0.5118 4.31114 0.480857 4.46972C0.449915 4.62832 0.422917 4.79887 0.399186 4.98748C0.373614 5.19423 0.353185 5.40159 0.337919 5.60935C0.32066 5.83778 0.30636 6.08914 0.294649 6.36891L0.266912 7.29916L0.251995 8.43311L0.247681 9.80375L0.260316 11.7969L0.299765 13.3071L0.330152 13.8969L0.368121 14.3858C0.380293 14.5175 0.395521 14.6489 0.413795 14.7799C0.430437 14.8963 0.448313 14.9981 0.467543 15.0863C0.506565 15.2655 0.552707 15.4431 0.605859 15.6186C0.656752 15.7867 0.714952 15.9524 0.780294 16.1154C0.844521 16.2751 0.914788 16.429 0.991219 16.5772C1.06765 16.7253 1.15024 16.8678 1.239 17.0046C1.32776 17.1413 1.42269 17.2725 1.52402 17.3981C1.62523 17.5237 1.7329 17.6438 1.84658 17.7583C1.96041 17.8729 2.08049 17.982 2.20703 18.0856C2.33506 18.1905 2.46817 18.2891 2.60583 18.3809C2.7336 18.4663 2.86002 18.5446 2.98737 18.6163C3.1147 18.6882 3.24316 18.7533 3.37519 18.8126C3.50721 18.8718 3.64258 18.9251 3.78398 18.9731C3.92537 19.0211 4.07269 19.0637 4.22839 19.1015C4.38409 19.1394 4.5489 19.1726 4.72334 19.2016C4.89777 19.2306 5.08423 19.2554 5.28344 19.2768C5.48266 19.2982 5.69518 19.3158 5.92355 19.3306C6.15192 19.3455 6.396 19.3572 6.65827 19.3667C7.06342 19.3814 7.67672 19.39 8.38395 19.3933L10.6735 19.3886L12.8416 19.3583L13.6659 19.335L14.2029 19.3075C14.3182 19.298 14.431 19.2869 14.5399 19.274C14.6488 19.261 14.7561 19.2462 14.8607 19.2292C14.9652 19.2124 15.0674 19.1935 15.1677 19.1726C15.267 19.1519 15.3657 19.1287 15.4638 19.1034C15.5609 19.0786 15.6567 19.0506 15.7516 19.0208C15.8463 18.9911 15.9403 18.9589 16.0335 18.9243C16.1273 18.8896 16.2202 18.8526 16.3122 18.8134C16.4048 18.7739 16.4973 18.7318 16.5902 18.687C16.7327 18.6183 16.8475 18.561 16.9482 18.5052C17.0431 18.4532 17.1344 18.3951 17.2216 18.3311C17.3077 18.2677 17.3932 18.1956 17.4918 18.1047C17.5904 18.0139 17.7022 17.9045 17.8405 17.766C17.9622 17.6444 18.0647 17.5388 18.1532 17.4427C18.2416 17.3466 18.3162 17.2602 18.3815 17.1768C18.4438 17.0977 18.5018 17.0154 18.5553 16.9302C18.6076 16.8469 18.6557 16.7605 18.7046 16.6647C18.7783 16.5205 18.8439 16.3869 18.9026 16.258C18.9596 16.1338 19.0117 16.0073 19.0588 15.879C19.1051 15.7517 19.1454 15.6222 19.1792 15.491C19.2139 15.3561 19.2438 15.2135 19.2698 15.0572C19.2955 14.9009 19.3175 14.7308 19.3364 14.5408C19.3554 14.3509 19.3716 14.1409 19.3857 13.905L19.4234 13.1131L19.4556 12.1284L19.4787 11.0312L19.4875 9.88401L19.467 7.63082L19.4394 6.62162L19.4019 5.75512L19.355 5.07957C19.338 4.89157 19.3196 4.74352 19.3002 4.64342C19.2786 4.53281 19.2545 4.42273 19.2279 4.31322C19.202 4.20668 19.1736 4.10078 19.1426 3.99561C19.1124 3.89314 19.0795 3.79146 19.0441 3.69068C19.0091 3.59114 18.9719 3.49368 18.9331 3.39834C18.8943 3.30298 18.8522 3.20985 18.8085 3.11869C18.7647 3.02752 18.7189 2.93858 18.6708 2.85166C18.6225 2.76476 18.5724 2.68001 18.5199 2.59734C18.4675 2.51469 18.4129 2.43412 18.356 2.35572C18.2995 2.27757 18.2404 2.20121 18.1791 2.12674C18.118 2.05269 18.0547 1.98058 17.9891 1.91051C17.9236 1.84055 17.8559 1.77268 17.7861 1.70699C17.7162 1.64128 17.6444 1.57767 17.5702 1.51615C17.4957 1.45444 17.4194 1.39505 17.3411 1.33808C17.2621 1.28053 17.1814 1.22541 17.099 1.17277C17.0154 1.11939 16.9305 1.0685 16.8439 1.02016C16.756 0.971006 16.6665 0.924387 16.5759 0.880361C16.4253 0.807196 16.2861 0.742293 16.1495 0.684723C16.0151 0.627588 15.8781 0.576843 15.7391 0.532662C15.5992 0.48859 15.4535 0.450807 15.2933 0.4182C15.133 0.385593 14.9582 0.358411 14.7605 0.335296C14.5627 0.312183 14.3419 0.293507 14.0892 0.277974C13.8367 0.262441 13.5525 0.250236 13.2281 0.240374L12.1257 0.215719L10.7304 0.199262L8.94363 0.18829L8.94301 0.188168ZM9.87096 1.88333L12.4476 1.89801L13.4197 1.91674C13.6873 1.92426 13.8916 1.93308 14.0113 1.94325C14.1674 1.95638 14.3158 1.97283 14.458 1.99256C14.5943 2.01139 14.73 2.0348 14.8647 2.06276C14.9942 2.08989 15.1176 2.1207 15.2359 2.15546C15.354 2.19023 15.4669 2.22919 15.5751 2.27227C15.6835 2.31536 15.787 2.36275 15.8867 2.41466C15.9856 2.46616 16.0816 2.52284 16.1745 2.58446C16.267 2.64579 16.3561 2.71188 16.4427 2.78307C16.5291 2.85425 16.613 2.93056 16.6949 3.01217C16.7815 3.09828 16.8613 3.18599 16.9347 3.27647C17.008 3.3664 17.0758 3.46065 17.1377 3.55871C17.2004 3.65817 17.2568 3.76141 17.3067 3.86782C17.3578 3.97632 17.4036 4.09096 17.4447 4.21281C17.486 4.33468 17.5226 4.46417 17.5551 4.60256C17.5892 4.74926 17.6176 4.8972 17.6406 5.04604C17.6652 5.20384 17.6863 5.37211 17.7042 5.55227C17.722 5.73244 17.7368 5.92457 17.749 6.13013C17.7587 6.29501 17.7673 6.5126 17.7745 6.76956L17.7925 7.64575L17.8063 9.79198L17.7907 11.9362L17.7718 12.8098L17.7458 13.4453C17.7279 13.7428 17.7089 13.993 17.6862 14.2106C17.6748 14.3195 17.6624 14.4203 17.6488 14.5147C17.6359 14.604 17.6207 14.6928 17.6032 14.7813C17.5872 14.862 17.5686 14.9421 17.5474 15.0218C17.5272 15.0975 17.5043 15.1728 17.4791 15.2472C17.4536 15.3219 17.4259 15.3958 17.396 15.4687C17.3643 15.5459 17.3309 15.6222 17.2958 15.6979C17.2645 15.7653 17.2316 15.8311 17.1969 15.8949C17.1626 15.9583 17.1259 16.0203 17.0875 16.0811C17.0493 16.1413 17.0092 16.1998 16.9672 16.2565C16.9255 16.3129 16.8818 16.3678 16.8361 16.4211C16.7907 16.4743 16.7433 16.5256 16.694 16.5753C16.6447 16.6249 16.5935 16.6727 16.5405 16.7189C16.4875 16.7651 16.4325 16.8096 16.3756 16.8524C16.3188 16.8951 16.2599 16.9362 16.1991 16.9755C16.1382 17.0149 16.0755 17.0525 16.0107 17.0886C15.9459 17.1246 15.8791 17.1589 15.8104 17.1916C15.7404 17.2249 15.6696 17.256 15.5977 17.285C15.5235 17.315 15.4486 17.3428 15.3728 17.3685C15.2186 17.421 15.0562 17.4671 14.885 17.5068C14.7068 17.5481 14.5268 17.5818 14.3456 17.6078C14.2759 17.618 14.1158 17.6276 13.8865 17.6364L13.0128 17.6607L10.5356 17.6929L7.94269 17.697L6.92443 17.6861L6.26323 17.6656L5.77568 17.6312C5.6243 17.6185 5.48351 17.6044 5.35161 17.5882C5.21971 17.5722 5.09687 17.5543 4.98129 17.5339C4.87177 17.5151 4.76292 17.4924 4.65492 17.4662C4.55644 17.4423 4.45897 17.4144 4.36276 17.3826C4.26999 17.3517 4.18129 17.3178 4.095 17.2805C4.0087 17.2432 3.92487 17.2023 3.84185 17.1577C3.75882 17.1131 3.67666 17.0647 3.59357 17.0118C3.53089 16.972 3.4703 16.9316 3.41199 16.889C3.35368 16.8462 3.29734 16.8036 3.2431 16.759C3.18886 16.7144 3.13677 16.6684 3.08654 16.6211C3.03663 16.5739 2.98845 16.525 2.94206 16.4745C2.89583 16.424 2.85163 16.3722 2.80922 16.3185C2.76666 16.2645 2.72609 16.2089 2.68762 16.152C2.64857 16.0941 2.61163 16.035 2.57686 15.9746C2.54172 15.9135 2.50832 15.8504 2.47657 15.7852C2.44429 15.719 2.41417 15.6516 2.38628 15.5833C2.35792 15.5137 2.33104 15.442 2.30577 15.368C2.25523 15.2197 2.21086 15.0619 2.17227 14.8936C2.13368 14.7254 2.10076 14.5466 2.0729 14.3561C2.04504 14.1657 2.02261 13.9637 2.00473 13.7491C1.99154 13.5911 1.98107 13.3448 1.97305 13.0341L1.95628 11.9293L1.96244 9.11273L2.01096 6.42137L2.04794 5.47313L2.06889 5.15969C2.07617 5.076 2.0837 5.01399 2.09139 4.97675C2.11679 4.85428 2.14237 4.74031 2.16881 4.63362C2.19351 4.53296 2.221 4.43302 2.25122 4.33388C2.27995 4.24031 2.31021 4.15266 2.34257 4.06963C2.37377 3.9892 2.40855 3.91021 2.4468 3.83288C2.48415 3.75769 2.52428 3.68568 2.56785 3.6156C2.61144 3.54552 2.65847 3.47754 2.70975 3.40992C2.76103 3.3423 2.81625 3.27555 2.87635 3.20787C2.93645 3.1402 3.00136 3.07184 3.07175 3.00139C3.15378 2.91888 3.2392 2.83981 3.32779 2.76439C3.41144 2.69323 3.49866 2.62638 3.58913 2.56413C3.67808 2.50248 3.76931 2.44763 3.86429 2.39721C3.95928 2.3468 4.05802 2.30123 4.16187 2.26025C4.26573 2.21926 4.37484 2.18259 4.4904 2.1493C4.61183 2.11525 4.73459 2.08618 4.85838 2.0622C4.98856 2.03669 5.12682 2.01443 5.27444 1.99502C5.42206 1.97561 5.57911 1.95884 5.74702 1.94429C5.86413 1.93419 6.06593 1.92518 6.33166 1.91761L7.29876 1.8985L9.87141 1.88277L9.87096 1.88333Z" fill="url(#paint2_radial_1035_6007)"/>
<defs>
<radialGradient id="paint0_radial_1035_6007" cx="0" cy="0" r="1" gradientUnits="userSpaceOnUse" gradientTransform="translate(3.31297 20.7932) rotate(-9.53101) scale(40.6633 24.6823)">
<stop stop-color="#FED576"/>
<stop offset="0.263" stop-color="#F47133"/>
<stop offset="0.609" stop-color="#BC3081"/>
<stop offset="1" stop-color="#4C63D2"/>
</radialGradient>
<radialGradient id="paint1_radial_1035_6007" cx="0" cy="0" r="1" gradientUnits="userSpaceOnUse" gradientTransform="translate(3.31301 20.7933) rotate(-9.53102) scale(40.6633 24.6823)">
<stop stop-color="#FED576"/>
<stop offset="0.263" stop-color="#F47133"/>
<stop offset="0.609" stop-color="#BC3081"/>
<stop offset="1" stop-color="#4C63D2"/>
</radialGradient>
<radialGradient id="paint2_radial_1035_6007" cx="0" cy="0" r="1" gradientUnits="userSpaceOnUse" gradientTransform="translate(3.31293 20.7933) rotate(-9.53101) scale(40.6633 24.6823)">
<stop stop-color="#FED576"/>
<stop offset="0.263" stop-color="#F47133"/>
<stop offset="0.609" stop-color="#BC3081"/>
<stop offset="1" stop-color="#4C63D2"/>
</radialGradient>
</defs>
</svg>
