<svg width="40" height="40" viewBox="0 0 40 40" fill="none" xmlns="http://www.w3.org/2000/svg">
<circle cx="20" cy="20" r="20" fill="#EA5B31"/>
<g clip-path="url(#clip0_1484_12148)">
<path d="M18 19V16L23 20L18 24V21H9V19H18ZM10.458 23H12.582C13.28 24.7191 14.5537 26.1422 16.1851 27.0259C17.8165 27.9097 19.7043 28.1991 21.5255 27.8447C23.3468 27.4904 24.9883 26.5142 26.1693 25.0832C27.3503 23.6523 27.9975 21.8554 28 20C28.001 18.1427 27.3558 16.3428 26.1749 14.9092C24.994 13.4756 23.3511 12.4976 21.528 12.1428C19.7048 11.7881 17.815 12.0787 16.1828 12.965C14.5505 13.8512 13.2775 15.2778 12.582 17H10.458C11.732 12.943 15.522 10 20 10C25.523 10 30 14.477 30 20C30 25.523 25.523 30 20 30C15.522 30 11.732 27.057 10.458 23Z" fill="white"/>
</g>
<defs>
<clipPath id="clip0_1484_12148">
<rect width="24" height="24" fill="white" transform="translate(8 8)"/>
</clipPath>
</defs>
</svg>
