<svg width="24" height="24" viewBox="0 0 24 24" fill="none" xmlns="http://www.w3.org/2000/svg">
<path d="M20.5 7.238V6.11902L19.6664 6.86553L12.0695 13.669L4.3308 6.84107L3.5 6.10805V7.216V19V19.5H4H20H20.5V19V7.238ZM4.511 4.5H3.18865L4.18018 5.37491L11.7302 12.0369L12.0634 12.331L12.3945 12.0345L19.8355 5.37251L20.8101 4.5H19.502H4.511ZM3 3.5H21C21.1326 3.5 21.2598 3.55268 21.3536 3.64645C21.4473 3.74021 21.5 3.86739 21.5 4V20C21.5 20.1326 21.4473 20.2598 21.3536 20.3536C21.2598 20.4473 21.1326 20.5 21 20.5H3C2.86739 20.5 2.74021 20.4473 2.64645 20.3536C2.55268 20.2598 2.5 20.1326 2.5 20V4C2.5 3.86739 2.55268 3.74021 2.64645 3.64645C2.74021 3.55268 2.86739 3.5 3 3.5Z" fill="#333333" stroke="#333333"/>
</svg>
