<svg width="19" height="20" viewBox="0 0 19 20" fill="none" xmlns="http://www.w3.org/2000/svg">
<path d="M9.16661 18.1462C4.63582 18.1462 0.953125 14.4635 0.953125 9.93272C0.953125 5.40194 4.63582 1.71924 9.16661 1.71924C9.47987 1.71924 9.73964 1.97901 9.73964 2.29227C9.73964 2.60553 9.47987 2.86531 9.16661 2.86531C5.26998 2.86531 2.09919 6.03609 2.09919 9.93272C2.09919 13.8294 5.26998 17.0001 9.16661 17.0001C13.0632 17.0001 16.234 13.8294 16.234 9.93272C16.234 9.61946 16.4938 9.35969 16.8071 9.35969C17.1203 9.35969 17.3801 9.61946 17.3801 9.93272C17.3801 14.4635 13.6974 18.1462 9.16661 18.1462Z" fill="#EA5B31" stroke="#EA5B31" stroke-width="0.534831"/>
<path d="M13.1781 5.53933V5.92136H13.5601H16.0433C16.1455 5.92136 16.2343 6.01009 16.2343 6.11237C16.2343 6.21464 16.1455 6.30338 16.0433 6.30338H12.9871C12.8848 6.30338 12.7961 6.21464 12.7961 6.11237V3.05619C12.7961 2.95391 12.8848 2.86518 12.9871 2.86518C13.0894 2.86518 13.1781 2.95391 13.1781 3.05619V5.53933Z" fill="#EA5B31" stroke="#EA5B31" stroke-width="0.764045"/>
<path d="M12.9891 6.30331C12.9398 6.30331 12.8935 6.2863 12.8543 6.24711C12.7819 6.17472 12.7819 6.04987 12.8543 5.97748L16.6745 2.15726C16.7469 2.08487 16.8717 2.08487 16.9441 2.15726C17.0165 2.22964 17.0165 2.3545 16.9441 2.42688L13.1239 6.24711C13.0847 6.2863 13.0384 6.30331 12.9891 6.30331Z" fill="#EA5B31" stroke="#EA5B31" stroke-width="0.764045"/>
<path d="M6.23266 10.4126V9.71227H6.7858V7.87777H8.05523L8.93866 9.71227H9.97728V7.87777H11.0557V9.71227H11.6566V10.4126H11.0557V10.8305H11.6566V11.5309H11.0557V13.5842H9.86984L8.85509 11.5309H7.86422V13.5842H6.7858V11.5309H6.23266V10.8305H6.7858V10.4126H6.23266ZM9.47985 10.8305H9.97728V10.4126H9.2769L9.47985 10.8305ZM7.86422 10.8305H8.51286L8.30593 10.4126H7.86422V10.8305ZM9.9932 11.9169H10.0051C9.99452 11.8267 9.98656 11.698 9.98126 11.5309H9.82208C9.88045 11.6555 9.93749 11.7842 9.9932 11.9169ZM7.85228 9.42178H7.83636C7.84167 9.50667 7.84697 9.6035 7.85228 9.71227H7.96768C7.93585 9.63268 7.89738 9.53585 7.85228 9.42178Z" fill="#EA5B31"/>
</svg>
