<svg width="25" height="25" viewBox="0 0 25 25" fill="none" xmlns="http://www.w3.org/2000/svg">
<circle cx="12.372" cy="12.4848" r="11.686" fill="#F5F5F7"/>
<path d="M5.06824 19.7891C5.06824 18.2394 5.68384 16.7532 6.77961 15.6574C7.87539 14.5617 9.36158 13.9461 10.9112 13.9461C12.4609 13.9461 13.9471 14.5617 15.0429 15.6574C16.1386 16.7532 16.7542 18.2394 16.7542 19.7891H15.2935C15.2935 18.6268 14.8318 17.5122 14.01 16.6903C13.1881 15.8685 12.0735 15.4068 10.9112 15.4068C9.74899 15.4068 8.63435 15.8685 7.81252 16.6903C6.99069 17.5122 6.52899 18.6268 6.52899 19.7891H5.06824ZM10.9112 13.2157C8.49005 13.2157 6.52899 11.2546 6.52899 8.83342C6.52899 6.41223 8.49005 4.45117 10.9112 4.45117C13.3324 4.45117 15.2935 6.41223 15.2935 8.83342C15.2935 11.2546 13.3324 13.2157 10.9112 13.2157ZM10.9112 11.7549C12.5254 11.7549 13.8327 10.4476 13.8327 8.83342C13.8327 7.21929 12.5254 5.91192 10.9112 5.91192C9.29711 5.91192 7.98974 7.21929 7.98974 8.83342C7.98974 10.4476 9.29711 11.7549 10.9112 11.7549ZM16.9617 14.4595C17.9881 14.9218 18.8592 15.6706 19.4702 16.6161C20.0812 17.5615 20.4062 18.6633 20.4061 19.7891H18.9454C18.9455 18.9447 18.7018 18.1183 18.2435 17.4092C17.7853 16.7001 17.1319 16.1384 16.362 15.7917L16.9609 14.4595H16.9617ZM16.4592 6.21357C17.195 6.51689 17.8242 7.03198 18.2669 7.69348C18.7095 8.35497 18.9457 9.13305 18.9454 9.92899C18.9457 10.9313 18.5712 11.8975 17.8955 12.6378C17.2198 13.3781 16.2917 13.839 15.2935 13.93V12.4597C15.8347 12.3822 16.3367 12.1333 16.726 11.7494C17.1152 11.3656 17.3712 10.867 17.4562 10.327C17.5413 9.78696 17.451 9.23389 17.1986 8.74896C16.9462 8.26403 16.545 7.8728 16.0538 7.63269L16.4592 6.21357Z" fill="#065143"/>
</svg>
