<svg width="24" height="24" viewBox="0 0 24 24" fill="" xmlns="http://www.w3.org/2000/svg">
<path d="M8.70829 10.5373L9.07544 10.2751L10.3134 9.3911C10.3134 9.3911 10.3134 9.39109 10.3134 9.39109C10.413 9.32001 10.483 9.21492 10.5103 9.0957C10.5375 8.97648 10.5202 8.85139 10.4614 8.7441L10.4612 8.74378C9.65454 7.26765 9.16935 5.63751 9.03756 3.9605C9.02763 3.83511 8.9708 3.71807 8.8784 3.63273C8.78601 3.54738 8.66484 3.49998 8.53906 3.5H8.539H4.077H4.07689C3.9531 3.49997 3.83369 3.54587 3.74179 3.62882C3.64988 3.71176 3.59202 3.82585 3.57939 3.949L3.57933 3.94961C3.52616 4.46199 3.5 4.97876 3.5 5.5C3.5 13.7839 10.2161 20.5 18.5 20.5C19.0212 20.5 19.538 20.4738 20.0504 20.4207L20.051 20.4206C20.1742 20.408 20.2882 20.3501 20.3712 20.2582C20.4541 20.1663 20.5 20.0469 20.5 19.9231V19.923V15.461V15.4609C20.5 15.3352 20.4526 15.214 20.3673 15.1216C20.282 15.0293 20.1651 14.9725 20.0398 14.9625C20.0397 14.9625 20.0396 14.9624 20.0395 14.9624L20.079 14.464C18.4722 14.3378 16.9103 13.8729 15.496 13.1L8.70829 10.5373ZM8.70829 10.5373L8.93146 10.9293C9.91425 12.6559 11.3441 14.0858 13.0707 15.0685L13.4627 15.2917L13.7249 14.9246L14.6089 13.6866L8.70829 10.5373ZM9.0346 9.07488L9.37193 8.83395L9.19768 8.45782C8.67857 7.33731 8.32291 6.14811 8.14158 4.92658L8.07826 4.5H7.647H5.01H4.52775L4.51033 4.98194C4.50411 5.15401 4.501 5.32696 4.501 5.49993C4.49996 13.2321 10.7679 19.5 18.5 19.5C18.6729 19.5 18.847 19.4969 19.0211 19.4896L19.5 19.4694V18.99V16.353V15.9217L19.0734 15.8584C17.8519 15.6771 16.6627 15.3214 15.5422 14.8023L15.166 14.6281L14.9251 14.9654L13.7977 16.544C13.3995 16.3742 13.0107 16.1828 12.633 15.9707C12.6327 15.9705 12.6323 15.9703 12.6319 15.9701L12.5763 15.9384C10.693 14.8666 9.13341 13.307 8.06158 11.4237C8.06157 11.4237 8.06156 11.4237 8.06155 11.4237L8.02991 11.3681C8.02969 11.3677 8.02947 11.3673 8.02924 11.3669C7.81716 10.9893 7.62581 10.6005 7.45604 10.2023L9.0346 9.07488Z" fill="#f5f5f7" stroke=""/>
</svg>
