<svg width="84" height="15" viewBox="0 0 84 15" fill="none" xmlns="http://www.w3.org/2000/svg">
<path d="M8.48118 0L11.046 4.37295L16.0266 5.44398L12.6312 9.21765L13.1445 14.2525L8.48118 12.2118L3.81784 14.2525L4.33118 9.21765L0.93573 5.44398L5.91634 4.37295L8.48118 0Z" fill="#EA5B31"/>
<path d="M25.4584 0L28.0233 4.37295L33.0039 5.44398L29.6084 9.21765L30.1218 14.2525L25.4584 12.2118L20.7951 14.2525L21.3084 9.21765L17.913 5.44398L22.8936 4.37295L25.4584 0Z" fill="#EA5B31"/>
<path d="M42.4357 0L45.0006 4.37295L49.9812 5.44398L46.5857 9.21765L47.0991 14.2525L42.4357 12.2118L37.7724 14.2525L38.2857 9.21765L34.8903 5.44398L39.8709 4.37295L42.4357 0Z" fill="#EA5B31"/>
<path d="M59.413 0L61.9778 4.37295L66.9585 5.44398L63.563 9.21765L64.0764 14.2525L59.413 12.2118L54.7497 14.2525L55.263 9.21765L51.8676 5.44398L56.8482 4.37295L59.413 0Z" fill="#EA5B31"/>
<path d="M76.3903 0L78.9551 4.37294L83.9357 5.44398L80.5403 9.21765L81.0536 14.2525L76.3903 12.2118L71.7269 14.2525L72.2403 9.21765L68.8448 5.44398L73.8254 4.37294L76.3903 0Z" fill="#EA5B31"/>
<path d="M71.7269 14.2525L76.3903 12.2118V0L73.8254 4.37294L68.8448 5.44398L72.2403 9.21764L71.7269 14.2525Z" fill="#EA5B31"/>
</svg>
