<svg width="100" height="100" viewBox="0 0 100 100" fill="none" xmlns="http://www.w3.org/2000/svg">
<path d="M60.8307 33.3333H87.4974C89.7075 33.3333 91.8272 34.2112 93.39 35.774C94.9528 37.3368 95.8307 39.4565 95.8307 41.6666V50.4333C95.8319 51.5223 95.6195 52.6009 95.2057 53.6083L82.3099 84.9208C81.9953 85.6842 81.461 86.3369 80.7748 86.7961C80.0886 87.2553 79.2814 87.5003 78.4557 87.4999H8.33073C7.22566 87.4999 6.16585 87.0609 5.38445 86.2795C4.60305 85.4981 4.16406 84.4383 4.16406 83.3333V41.6666C4.16406 40.5615 4.60305 39.5017 5.38445 38.7203C6.16585 37.9389 7.22566 37.4999 8.33073 37.4999H22.8391C23.5061 37.5001 24.1635 37.3401 24.7559 37.0334C25.3483 36.7267 25.8583 36.2822 26.2432 35.7374L48.9641 3.54159C49.2513 3.13456 49.6749 2.84393 50.158 2.72238C50.6411 2.60084 51.1518 2.65644 51.5974 2.87909L59.1557 6.65826C61.2828 7.72143 62.9821 9.4804 63.9713 11.6429C64.9604 13.8054 65.1799 16.2413 64.5932 18.5458L60.8307 33.3333ZM29.1641 44.1166V79.1666H75.6641L87.4974 50.4333V41.6666H60.8307C59.5616 41.6664 58.3092 41.3763 57.1692 40.8185C56.0292 40.2607 55.0317 39.4498 54.2527 38.4478C53.4738 37.4458 52.934 36.2791 52.6745 35.0367C52.4151 33.7943 52.4429 32.5091 52.7557 31.2791L56.5182 16.4958C56.636 16.0346 56.5923 15.5471 56.3944 15.1142C56.1966 14.6814 55.8565 14.3293 55.4307 14.1166L52.6766 12.7416L33.0516 40.5416C32.0099 42.0166 30.6766 43.2249 29.1641 44.1166ZM20.8307 45.8333H12.4974V79.1666H20.8307V45.8333Z" fill="#BDBDBD"/>
</svg>
