<svg width="24" height="24" viewBox="0 0 24 24" fill="#f5f5f7" xmlns="http://www.w3.org/2000/svg">
<circle cx="12" cy="12" r="12" fill="#f5f5f7"/>
<path d="M18.3554 9.23858C18.3655 9.3807 18.3655 9.52286 18.3655 9.66498C18.3655 14 15.066 18.995 9.03555 18.995C7.17767 18.995 5.45179 18.4569 4 17.5229C4.26397 17.5533 4.51775 17.5635 4.79188 17.5635C6.32485 17.5635 7.73605 17.0457 8.86296 16.1625C7.42133 16.132 6.2132 15.1878 5.79694 13.8883C6.00001 13.9188 6.20304 13.9391 6.41626 13.9391C6.71067 13.9391 7.00511 13.8985 7.2792 13.8274C5.77666 13.5228 4.64972 12.2031 4.64972 10.6091V10.5685C5.08625 10.8122 5.59391 10.9645 6.13195 10.9848C5.24869 10.3959 4.67003 9.39086 4.67003 8.25379C4.67003 7.64466 4.83244 7.08629 5.11672 6.59897C6.73095 8.58882 9.15736 9.8883 11.8782 10.0305C11.8274 9.7868 11.7969 9.53301 11.7969 9.2792C11.7969 7.47207 13.2589 6 15.0761 6C16.0203 6 16.8731 6.39594 17.4721 7.03554C18.2132 6.89341 18.9238 6.61928 19.5533 6.24366C19.3096 7.0051 18.7919 7.64469 18.1117 8.05076C18.7716 7.97973 19.4112 7.79694 20 7.54316C19.5534 8.19288 18.995 8.77154 18.3554 9.23858V9.23858Z" stroke="#9C3D21" stroke-width="1.3"/>
</svg>
