<svg width="22" height="22" viewBox="0 0 22 22" fill="none" xmlns="http://www.w3.org/2000/svg">
<path d="M14.4043 16.0107L14.2582 15.0215C13.9081 15.0732 13.6408 15.0817 13.2864 15.0147C12.9031 14.9423 12.384 14.7746 11.5494 14.4143C11.2271 14.2748 10.9192 14.1102 10.6272 13.9291C10.9157 14.0895 11.2127 14.2415 11.5177 14.394C11.7237 14.4984 12.0447 14.6256 12.4261 14.5782C12.8469 14.5259 13.1331 14.2909 13.3087 14.0883C13.4089 13.973 13.7146 13.6179 13.9673 13.2976C14.1233 13.3697 14.3135 13.4601 14.5075 13.5535C14.8793 13.7326 15.2491 13.915 15.3954 13.9889C15.3742 14.1039 15.3406 14.2375 15.2904 14.3807C15.2883 14.3838 15.2691 14.419 15.2079 14.4817C15.1321 14.5595 15.0232 14.6472 14.8888 14.7335C14.7561 14.8187 14.6163 14.891 14.4908 14.9438C14.3572 15 14.276 15.0188 14.2564 15.0217L14.4043 16.0107ZM14.4043 16.0107C14.9268 15.9326 16.0059 15.3564 16.2305 14.7217C16.4551 14.0869 16.4551 13.5449 16.3867 13.4326M14.4043 16.0107C13.5449 16.1377 12.8711 16.0742 11.1523 15.332C8.61972 14.2362 6.90852 11.7898 6.57466 11.3124L16.3867 13.4326M16.3867 13.4326C16.3336 13.3305 16.1986 13.266 15.9988 13.1705C15.9596 13.1518 15.918 13.1319 15.874 13.1104L16.3867 13.4326ZM7.35378 6.84111C7.41125 6.98055 7.48012 7.14835 7.55316 7.32629C7.62345 7.49755 7.69759 7.6782 7.76914 7.852C7.8741 8.10694 7.98536 8.37677 8.06504 8.5632C7.94785 8.75147 7.83524 8.86972 7.71694 8.99394C7.69504 9.01694 7.67294 9.04014 7.65059 9.06403C7.64752 9.06731 7.6441 9.07093 7.64035 9.0749C7.56128 9.15873 7.33814 9.39528 7.24837 9.73622C7.14009 10.1475 7.26193 10.4968 7.38904 10.7316C7.36485 10.6975 7.34554 10.6703 7.33123 10.6508L7.35378 6.84111ZM7.35378 6.84111C7.2837 6.84007 7.20591 6.83988 7.11898 6.83985C7.1158 6.8421 7.10997 6.84666 7.10202 6.85503C7.08529 6.87334 7.06769 6.89225 7.04942 6.91188C6.79823 7.18181 6.41992 7.58834 6.41992 8.4375C6.41992 8.87884 6.58684 9.37058 6.8141 9.81868C7.02261 10.2298 7.24359 10.5312 7.31993 10.6353C7.32397 10.6408 7.3276 10.6458 7.33081 10.6502L7.35378 6.84111ZM15.4259 13.6719C15.4258 13.6705 15.4258 13.6704 15.4259 13.6717L15.4259 13.6719Z" fill="white" stroke="white" stroke-width="2"/>
</svg>
