<svg width="24" height="24" viewBox="0 0 24 24" fill="none" xmlns="http://www.w3.org/2000/svg">
<path d="M18.2849 16.6941L23.1032 21.5114L21.5114 23.1032L16.6941 18.2849C14.9017 19.7217 12.6723 20.5033 10.375 20.5C4.786 20.5 0.25 15.964 0.25 10.375C0.25 4.786 4.786 0.25 10.375 0.25C15.964 0.25 20.5 4.786 20.5 10.375C20.5033 12.6723 19.7217 14.9017 18.2849 16.6941ZM16.0281 15.8594C17.4559 14.3911 18.2532 12.423 18.25 10.375C18.25 6.0235 14.7254 2.5 10.375 2.5C6.0235 2.5 2.5 6.0235 2.5 10.375C2.5 14.7254 6.0235 18.25 10.375 18.25C12.423 18.2532 14.3911 17.4559 15.8594 16.0281L16.0281 15.8594Z" fill="#BDBDBD"/>
</svg>
